<svg xmlns="http://www.w3.org/2000/svg" viewBox="0 0 256 292" preserveAspectRatio="xMidYMid">
  <path d="M223.774 57.34c-.201-1.46-1.48-2.268-2.537-2.357-1.055-.088-23.383-1.743-23.383-1.743s-15.507-15.395-17.209-17.099c-1.703-1.703-5.029-1.185-6.32-.828-.19.053-3.388 1.046-8.678 2.68-5.18-14.906-14.322-28.604-30.405-28.604-.444 0-.901.018-1.358.044C129.31 3.407 123.95.96 119.449.96c-37.507 0-55.44 46.835-61.037 70.635-14.572 4.512-24.922 7.718-26.199 8.128-8.145 2.553-8.4 2.808-9.466 10.498C21.945 96.378 0 260.267 0 260.267l177.667 30.853 82.457-20.498s-36.15-211.822-36.35-213.282zM156.49 40.848l-14.019 4.339c.005-.988.01-1.96.01-3.023 0-9.264-1.286-16.723-3.406-22.482 8.396 1.05 14.005 10.607 17.415 21.166zm-27.762 8.589c-9.684 2.998-20.244 6.27-30.826 9.547 5.931-22.78 17.053-33.822 26.77-37.964 2.56 6.206 4.122 14.756 4.056 28.417zm-14.85-39.38c1.756 0 3.49.456 5.157 1.386-12.747 5.989-26.394 21.077-32.166 51.188l-24.396 7.553C69.382 45.205 83.853 10.057 113.878 10.057z" fill="#95BF47"/>
  <path d="M221.237 54.983c-1.055-.088-23.383-1.743-23.383-1.743s-15.507-15.395-17.209-17.099c-.637-.634-1.496-.959-2.394-1.099l-1.584 259.078 82.457-20.498s-36.15-211.822-36.35-213.282c-.2-1.46-1.336-2.269-2.537-2.357z" fill="#5E8E3E"/>
  <path d="M135.242 104.585l-11.069 32.926s-9.698-5.176-21.586-5.176c-17.428 0-18.305 10.937-18.305 13.693 0 15.038 39.2 20.8 39.2 56.024 0 27.713-17.577 45.558-41.277 45.558-28.44 0-42.984-17.7-42.984-17.7l7.615-25.16s14.95 12.835 27.565 12.835c8.243 0 11.596-6.49 11.596-11.232 0-19.616-32.16-20.491-32.16-52.724 0-27.129 19.472-53.382 58.778-53.382 15.145 0 22.627 4.338 22.627 4.338z" fill="#fff"/>
</svg>
